<svg xmlns="http://www.w3.org/2000/svg" id="Layer_2" data-name="Layer 2" viewBox="0 0 368.01 113.95">
  <defs>
    <style>
      .cls-1 {
        fill: #38ae71;
      }
    </style>
  </defs>
  <g id="Layer_1-2" data-name="Layer 1">
    <g>
      <g>
        <polygon class="cls-1" points="162.19 113.81 163.75 113.81 163.75 110.49 166.81 110.49 166.81 109.17 163.75 109.17 163.75 106.94 167.23 106.94 167.23 105.63 162.19 105.63 162.19 113.81"/>
        <path class="cls-1" d="M170.29,107.88c-.69,0-1.42.12-2.18.37v1.3c.62-.22,1.2-.34,1.75-.34.93,0,1.41.39,1.41,1.2v.11c-.62-.11-1.12-.18-1.51-.18-.69,0-1.23.17-1.61.49-.39.31-.6.76-.6,1.33,0,.53.17.96.49,1.28.34.34.75.49,1.27.49.45,0,.85-.12,1.2-.37.35-.26.6-.6.74-1.03v1.26h1.51v-3.52c0-.75-.21-1.34-.65-1.76-.44-.43-1.05-.64-1.83-.64ZM171.27,111.54c0,.4-.12.73-.37,1-.25.28-.56.42-.93.42-.27,0-.49-.08-.66-.25-.17-.16-.26-.36-.26-.62,0-.31.12-.55.37-.72.26-.17.6-.26,1.05-.26.29,0,.56.03.81.1v.33Z"/>
        <path class="cls-1" d="M176.52,110.33c-.38-.1-.66-.2-.83-.31-.17-.1-.26-.24-.26-.38,0-.16.08-.29.25-.38.18-.09.4-.15.7-.15s.63.04.98.12c.35.07.66.17.94.29v-1.31c-.62-.24-1.3-.36-2.05-.36s-1.32.16-1.73.46c-.43.3-.63.72-.63,1.26,0,.45.16.82.47,1.11.33.28.83.52,1.55.7.42.1.72.21.92.34.2.11.3.26.3.43,0,.18-.09.31-.28.42-.18.11-.43.16-.75.16-.3,0-.66-.04-1.06-.15-.4-.1-.75-.22-1.07-.37v1.38c.65.25,1.36.37,2.14.37.82,0,1.45-.15,1.9-.46.45-.3.67-.73.67-1.29,0-.48-.17-.87-.49-1.15-.34-.29-.9-.53-1.67-.72Z"/>
        <path class="cls-1" d="M183.25,107.83c-.47,0-.88.12-1.2.38-.33.26-.56.63-.72,1.1v-3.8h-1.5v8.3h1.5v-3.18c0-.48.11-.87.34-1.14.22-.28.53-.43.92-.43.37,0,.66.13.87.4.21.27.33.63.33,1.1v3.24h1.49v-3.46c0-.78-.18-1.39-.54-1.84-.36-.45-.85-.67-1.48-.67Z"/>
        <rect class="cls-1" x="186.6" y="108.01" width="1.52" height="5.8"/>
        <path class="cls-1" d="M187.36,105.74c-.24,0-.45.08-.63.22-.17.15-.26.31-.26.53,0,.2.09.38.26.53.18.15.38.21.63.21s.45-.07.62-.21c.16-.15.25-.31.25-.53s-.09-.38-.25-.53c-.17-.15-.37-.22-.62-.22Z"/>
        <path class="cls-1" d="M192.22,107.85c-.88,0-1.6.28-2.14.84-.54.56-.81,1.3-.81,2.21s.27,1.64.81,2.2c.54.56,1.26.84,2.14.84s1.6-.27,2.12-.83c.54-.56.81-1.29.81-2.21s-.27-1.65-.81-2.21c-.53-.56-1.25-.84-2.12-.84ZM193.25,112.21c-.26.31-.61.48-1.03.48s-.78-.17-1.03-.48c-.25-.33-.38-.76-.38-1.3s.13-.98.39-1.3c.26-.33.6-.49,1.02-.49s.76.17,1.02.49c.26.33.39.76.39,1.3s-.13.98-.38,1.3Z"/>
        <path class="cls-1" d="M199.71,107.83c-.47,0-.88.12-1.2.38-.33.26-.56.63-.72,1.1v-1.3h-1.51v5.8h1.51v-3.18c0-.48.11-.87.34-1.14.22-.28.53-.43.91-.43s.66.13.88.4c.21.27.31.63.31,1.1v3.24h1.51v-3.46c0-.78-.18-1.39-.54-1.84s-.85-.67-1.48-.67Z"/>
        <path class="cls-1" d="M207.2,106.02c-.38.34-.57.8-.57,1.39v.61h-.79s0,1.25,0,1.25h.79v4.55h1.52v-4.55h1.29v-1.26h-1.29v-.38c0-.28.08-.48.24-.61.17-.13.4-.19.74-.19.1,0,.24,0,.38.02v-1.23c-.2-.08-.45-.12-.75-.12-.66,0-1.18.18-1.55.52Z"/>
        <path class="cls-1" d="M213.22,107.85c-.89,0-1.6.28-2.14.84s-.81,1.3-.81,2.21.27,1.64.81,2.2c.54.56,1.25.84,2.14.84s1.58-.27,2.12-.83c.53-.56.8-1.29.8-2.21s-.27-1.65-.8-2.21c-.54-.56-1.25-.84-2.12-.84ZM214.24,112.21c-.26.31-.6.48-1.02.48s-.78-.17-1.03-.48c-.26-.33-.38-.76-.38-1.3s.12-.98.38-1.3c.26-.33.61-.49,1.03-.49s.76.17,1.02.49c.26.33.38.76.38,1.3s-.12.98-.38,1.3Z"/>
        <path class="cls-1" d="M218.79,109.4v-1.39h-1.52v5.8h1.52v-2.63c0-.7.18-1.19.55-1.52.37-.31.94-.48,1.74-.48v-1.3c-1.17,0-1.94.52-2.29,1.53Z"/>
        <polygon class="cls-1" points="234.76 105.63 233.02 111.87 231.37 105.63 229.75 105.63 228.09 111.87 226.36 105.63 224.75 105.63 227.29 113.81 228.91 113.81 230.56 108.3 232.21 113.81 233.83 113.81 236.37 105.63 234.76 105.63"/>
        <path class="cls-1" d="M239.2,107.85c-.88,0-1.58.28-2.12.84-.54.56-.81,1.3-.81,2.21s.27,1.64.81,2.2c.54.56,1.25.84,2.12.84s1.6-.27,2.12-.83c.54-.56.81-1.29.81-2.21s-.27-1.65-.81-2.21c-.53-.56-1.24-.84-2.12-.84ZM240.24,112.21c-.26.31-.6.48-1.03.48s-.76-.17-1.02-.48c-.26-.33-.38-.76-.38-1.3s.12-.98.38-1.3c.26-.33.6-.49,1.02-.49s.78.17,1.03.49c.26.33.38.76.38,1.3s-.12.98-.38,1.3Z"/>
        <path class="cls-1" d="M250.39,107.83c-.48,0-.89.15-1.23.45-.33.3-.55.73-.67,1.28-.11-.54-.33-.97-.65-1.27-.33-.31-.74-.46-1.24-.46-.45,0-.83.12-1.14.37-.31.26-.55.62-.7,1.09v-1.28h-1.49v5.8h1.49v-3.18c0-.48.11-.87.33-1.14.2-.28.49-.43.84-.43s.63.13.82.4c.19.26.29.63.29,1.1v3.24h1.52v-3.18c0-.48.1-.87.3-1.14.21-.28.49-.43.85-.43s.62.13.81.4c.2.26.3.63.3,1.1v3.24h1.51v-3.46c0-.78-.17-1.39-.52-1.84-.35-.45-.83-.67-1.44-.67Z"/>
        <path class="cls-1" d="M256.23,107.85c-.85,0-1.54.28-2.05.82-.51.54-.76,1.27-.76,2.17,0,.96.3,1.72.9,2.28.61.56,1.42.83,2.45.83.51,0,1.01-.07,1.49-.22v-1.3c-.39.19-.84.28-1.36.28s-.93-.12-1.27-.37c-.33-.25-.54-.57-.61-.99h3.86c.06-.3.08-.57.08-.81,0-.8-.25-1.45-.75-1.94-.49-.49-1.16-.74-1.98-.74ZM254.95,110.51c.01-.44.15-.8.39-1.07.25-.27.57-.4.97-.4s.7.13.93.4c.24.27.37.62.38,1.07h-2.68Z"/>
        <path class="cls-1" d="M263.45,107.83c-.47,0-.88.12-1.2.38-.33.26-.56.63-.72,1.1v-1.3h-1.51v5.8h1.51v-3.18c0-.48.11-.87.34-1.14.22-.28.53-.43.91-.43s.66.13.88.4.31.63.31,1.1v3.24h1.51v-3.46c0-.78-.18-1.39-.54-1.84s-.85-.67-1.48-.67Z"/>
        <path class="cls-1" d="M272.42,107.88c-.69,0-1.42.12-2.18.37v1.3c.62-.22,1.2-.34,1.74-.34.93,0,1.41.39,1.41,1.2v.11c-.61-.11-1.11-.18-1.51-.18-.67,0-1.21.17-1.61.49-.39.31-.58.76-.58,1.33,0,.53.17.96.49,1.28.33.34.75.49,1.27.49.45,0,.84-.12,1.19-.37.35-.26.6-.6.74-1.03v1.26h1.52v-3.52c0-.75-.22-1.34-.66-1.76-.44-.43-1.05-.64-1.82-.64ZM273.38,111.54c0,.4-.12.73-.37,1-.25.28-.55.42-.92.42-.27,0-.49-.08-.66-.25-.18-.16-.26-.36-.26-.62,0-.31.12-.55.37-.72s.6-.26,1.05-.26c.28,0,.55.03.8.1v.33Z"/>
        <path class="cls-1" d="M279.61,107.83c-.47,0-.88.12-1.2.38-.33.26-.56.63-.72,1.1v-1.3h-1.51v5.8h1.51v-3.18c0-.48.11-.87.34-1.14.22-.28.53-.43.91-.43s.66.13.88.4c.21.27.31.63.31,1.1v3.24h1.51v-3.46c0-.78-.18-1.39-.54-1.84s-.85-.67-1.48-.67Z"/>
        <path class="cls-1" d="M287,109.24c-.34-.93-.98-1.39-1.91-1.39-.72,0-1.29.28-1.72.84-.44.56-.65,1.29-.65,2.2s.21,1.65.65,2.21c.43.56,1,.84,1.72.84.49,0,.91-.13,1.26-.42.34-.28.58-.69.74-1.21v1.48h1.44v-8.3h-1.53v3.73ZM286.61,112.2c-.25.33-.58.49-1,.49s-.74-.17-1-.49c-.25-.33-.38-.76-.38-1.3s.13-.98.38-1.29c.25-.33.58-.49,1-.49s.75.17,1,.49c.26.33.38.75.38,1.29s-.12.97-.38,1.3Z"/>
        <polygon class="cls-1" points="299.34 105.63 297.54 105.63 294.58 109.66 294.58 105.63 293.02 105.63 293.02 113.81 294.58 113.81 294.58 111.77 295.68 110.36 297.69 113.81 299.48 113.81 296.63 109.14 299.34 105.63"/>
        <rect class="cls-1" x="300.36" y="108.01" width="1.52" height="5.8"/>
        <path class="cls-1" d="M301.14,105.74c-.25,0-.46.08-.63.22-.18.15-.26.31-.26.53,0,.2.08.38.26.53.17.15.38.21.63.21s.44-.07.61-.21c.17-.15.25-.31.25-.53s-.08-.38-.25-.53c-.17-.15-.37-.22-.61-.22Z"/>
        <path class="cls-1" d="M307.34,109.24c-.35-.93-.99-1.39-1.92-1.39-.71,0-1.28.28-1.72.84s-.65,1.29-.65,2.2.21,1.65.65,2.21,1.01.84,1.72.84c.49,0,.91-.13,1.26-.42.34-.28.58-.69.74-1.21v1.48h1.44v-8.3h-1.52v3.73ZM306.96,112.2c-.26.33-.6.49-1.01.49s-.74-.17-1-.49c-.25-.33-.37-.76-.37-1.3s.12-.98.37-1.29c.25-.33.58-.49,1-.49s.75.17,1.01.49c.25.33.38.75.38,1.29s-.13.97-.38,1.3Z"/>
        <path class="cls-1" d="M312.63,110.33c-.38-.1-.65-.2-.83-.31-.17-.1-.25-.24-.25-.38,0-.16.08-.29.25-.38.17-.09.4-.15.7-.15s.62.04.98.12c.35.07.66.17.93.29v-1.31c-.62-.24-1.29-.36-2.03-.36s-1.33.16-1.74.46c-.42.3-.62.72-.62,1.26,0,.45.16.82.47,1.11.31.28.83.52,1.54.7.42.1.73.21.93.34.19.11.29.26.29.43,0,.18-.09.31-.27.42-.18.11-.43.16-.75.16-.3,0-.66-.04-1.07-.15-.39-.1-.75-.22-1.06-.37v1.38c.65.25,1.36.37,2.14.37s1.44-.15,1.9-.46c.45-.3.67-.73.67-1.29,0-.48-.17-.87-.51-1.15-.33-.29-.89-.53-1.67-.72Z"/>
      </g>
      <g>
        <path class="cls-1" d="M343.94,10.81c-6.53,0-11.84,5.31-11.84,11.85s5.31,11.84,11.84,11.84,11.85-5.29,11.85-11.84-5.31-11.85-11.85-11.85ZM343.11,14.16c.06-.27.3-.48.57-.51.29-.02.55.13.66.4.09.24.09,1.43.02,1.69-.18.7-1.21.65-1.28-.19-.02-.29-.03-1.14.02-1.39ZM339.46,14.78c.22-.03.44.06.6.22.09.1.73,1.2.76,1.3.17.69-.61,1.16-1.07.7-.13-.13-.73-1.18-.79-1.37-.13-.38.08-.79.49-.85ZM335.17,23.27c-.62-.21-.54-1.14.11-1.26.27-.04,1.06-.03,1.35-.01.89.08.88,1.18.12,1.3-.25.04-1.36.04-1.58-.03ZM338.13,26.59c-.1.13-1.26.8-1.45.85-.71.19-1.15-.71-.51-1.17.12-.09,1.12-.67,1.23-.7.65-.17,1.12.53.73,1.01ZM337.4,19.74c-.1-.02-1.1-.61-1.23-.7-.53-.39-.34-1.16.28-1.2.09-.01.12,0,.19.02.18.03,1.35.71,1.47.83.43.47-.06,1.21-.72,1.05ZM340.82,28.97c-.01.08-.66,1.22-.74,1.31-.44.52-1.24.17-1.17-.45.02-.18.74-1.45.89-1.56.04-.04.16-.1.21-.11.53-.1.91.29.81.81ZM344.37,31.19c-.19.67-1.2.61-1.28-.16-.03-.29-.03-1.16.02-1.44.04-.21.26-.45.48-.49.43-.09.76.2.81.62.02.27.03,1.24-.03,1.47ZM341.26,26.94c-3.51-2.62-2.18-9.32,2.37-9.43,3.1-.08,4.95,3.17,4.56,5.96-.46,3.34-3.97,5.71-6.94,3.47ZM348.51,30.13c-.16.42-.67.53-1.02.25-.1-.09-.76-1.2-.81-1.35-.12-.34.04-.8.43-.88.21-.04.46-.01.62.16.13.12.66,1.07.74,1.27.09.22.13.29.04.55ZM348.56,15.52c-.03.17-.71,1.36-.83,1.48-.46.46-1.24-.01-1.07-.7.02-.09.63-1.14.72-1.25.11-.13.26-.25.44-.28.42-.06.82.3.74.74ZM349.34,18.71c.12-.13,1.38-.87,1.56-.88.65-.08.99.76.4,1.2-.12.09-1.12.67-1.23.7-.65.17-1.12-.53-.74-1.02ZM350.87,27.47c-.17-.03-1.35-.7-1.48-.82-.31-.33-.16-.98.29-1.07.13-.03.31-.03.44.01.13.04,1.15.64,1.27.74.51.44.11,1.26-.52,1.14ZM352.37,23.24c-.25.11-1.26.1-1.56.07-.83-.09-.83-1.17-.09-1.3.29-.04,1.42-.04,1.65.07.48.22.48.94,0,1.17Z"/>
        <path class="cls-1" d="M343.4,18.83c-2.56.29-3.45,3.72-2.44,5.79,1.34,2.72,4.66,2.42,5.71-.36.87-2.3-.45-5.76-3.27-5.43Z"/>
        <rect class="cls-1" x="333.47" y="38.78" width="21.06" height="59.59" rx=".25" ry=".25"/>
        <path class="cls-1" d="M361.9,0c-3.37,0-6.11,2.74-6.11,6.11,0,1.69.69,3.23,1.79,4.33,1.11,1.11,2.64,1.8,4.33,1.8,3.38,0,6.11-2.74,6.11-6.13s-2.73-6.11-6.11-6.11ZM361.9,11.28c-2.73,0-4.95-2.32-4.95-5.17v-.02c.01-2.84,2.23-5.16,4.97-5.16h.02c2.73.01,4.95,2.33,4.95,5.17v.02c0,2.87-2.24,5.17-4.99,5.16Z"/>
        <path class="cls-1" d="M364.36,3.55c-.12-.22-.3-.37-.54-.45-1.15-.37-2.46-.46-3.95-.26-.27.03-.4.19-.4.47v5.53c0,.37.3.67.66.67h.2c.29,0,.44-.15.44-.44v-1.87c0-.27.13-.42.4-.45,1.63-.13,2,.43,2.07,1.99.01.38.33.69.72.69h.24c.28,0,.43-.13.43-.42.02-.89-.21-1.76-.72-2.65-.12-.22-.09-.43.11-.58.72-.58.82-1.33.34-2.24ZM362.48,5.63l-.96.07c-.42.02-.79-.29-.81-.71v-.15c-.04-.42.27-.78.69-.81l.96-.07c.42-.03.79.28.81.71v.13c.04.42-.27.79-.69.82Z"/>
        <path class="cls-1" d="M326.76,39.03h-19.8c-.22,0-.4.18-.4.39-.07,7-.08,15.53-.03,25.6.03,4.97.05,8.67-1.58,12.63-1.73,4.22-6.5,5.96-10.76,4.8-5.73-1.57-6.07-9.04-6.08-13.82-.01-5.65,0-15.4.02-29.26,0-.23-.11-.34-.34-.34h-19.79c-.26,0-.48.21-.48.48-.03,10.96-.04,20.4-.02,28.32,0,4.44-.7,10.78-5.05,13.22-3.49,1.96-8.23,1.56-10.91-1.41-1.85-2.05-2.47-5.98-2.51-8.9-.1-8.68-.11-19.07-.03-31.18,0-.35-.18-.53-.53-.53h-19.95c-.07,0-.13.06-.13.13-.04,13.37-.05,25.92-.03,37.64.01,6.57,1.4,13.03,6.82,17.31,2.77,2.19,5.75,3.51,8.96,3.96,10.12,1.42,17.96-1.99,23.5-10.24.02-.03.05-.06.08-.08.12-.08.29-.05.38.07,5.13,7.58,12.37,11.07,21.7,10.49,6.54-.41,11.98-2.91,16.32-7.5.04-.05.11-.08.17-.08.13,0,.24.1.24.24v6.08c0,.2.16.37.37.37h19.75c.26,0,.46-.21.46-.46v-57.57c0-.19-.15-.35-.34-.35Z"/>
        <path class="cls-1" d="M209.44,43.27c-4.47-2.83-10.12-4.25-16.93-4.25-6.02,0-11.33,1.24-15.92,3.71-4.59,2.47-8.14,5.95-10.64,10.43-2.51,4.47-3.77,9.72-3.77,15.75s1.24,11.04,3.71,15.48c2.47,4.45,6.02,7.89,10.64,10.33,4.63,2.43,10.09,3.65,16.4,3.65,5.45,0,10.31-.9,14.57-2.69,4.26-1.8,7.87-4.3,10.8-7.53l-9.99-9.89c-3.95,3.95-8.5,5.91-13.66,5.91-2.8,0-5.25-.66-7.36-1.99-2.11-1.33-3.74-3.2-4.89-5.64-.42-.88-.75-1.81-1.01-2.8h40.46c.43-7.03-.42-13.15-2.53-18.38-2.11-5.24-5.41-9.26-9.89-12.09ZM203.37,63.64h-22.35c.24-1.42.61-2.72,1.11-3.92.97-2.33,2.33-4.16,4.08-5.49,1.75-1.33,3.89-1.99,6.4-1.99,2.16,0,4.05.47,5.7,1.41s2.92,2.24,3.82,3.92c.89,1.69,1.3,3.71,1.24,6.07Z"/>
        <polygon class="cls-1" points="145.3 61.82 167.19 38.86 144.92 38.86 125.86 59.28 125.86 16.59 106.23 16.59 106.23 98.37 125.86 98.37 125.86 82.22 131.96 75.83 144.48 98.37 167.63 98.37 145.3 61.82"/>
        <path class="cls-1" d="M47.26,110.15c26.12,0,47.3-21.14,47.3-47.26S73.38,15.58,47.26,15.58,0,36.76,0,62.89c0,26.12,21.18,47.26,47.26,47.26ZM24.06,78.59c-.4.54-5.03,3.19-5.79,3.41-2.83.76-4.58-2.83-2.02-4.67.49-.36,4.49-2.69,4.89-2.78,2.6-.67,4.49,2.11,2.92,4.04ZM48.97,96.95c-.76,2.69-4.8,2.42-5.12-.63-.13-1.17-.13-4.62.09-5.74.18-.85,1.03-1.8,1.93-1.97,1.71-.36,3.05.81,3.23,2.47.09,1.08.13,4.94-.13,5.88ZM65.53,92.73c-.63,1.66-2.69,2.11-4.08.99-.4-.36-3.05-4.8-3.23-5.39-.49-1.35.18-3.19,1.71-3.5.85-.18,1.84-.04,2.47.63.54.49,2.65,4.26,2.96,5.07.36.9.54,1.17.18,2.2ZM74.95,82.09c-.67-.13-5.39-2.78-5.92-3.28-1.26-1.3-.63-3.9,1.17-4.26.54-.13,1.26-.13,1.75.04.54.18,4.58,2.56,5.07,2.96,2.02,1.75.45,5.03-2.06,4.53ZM80.92,60.55c1.93.9,1.93,3.77,0,4.67-.99.45-5.03.4-6.24.27-3.32-.36-3.32-4.67-.36-5.21,1.17-.18,5.66-.18,6.6.27ZM68.85,47.13c.49-.54,5.52-3.46,6.24-3.5,2.6-.31,3.95,3.05,1.62,4.8-.49.36-4.49,2.69-4.89,2.78-2.6.67-4.49-2.11-2.96-4.08ZM58.12,37.53c.09-.36,2.51-4.53,2.87-4.98.45-.54,1.03-.99,1.75-1.12,1.66-.22,3.28,1.21,2.96,2.96-.13.67-2.83,5.43-3.32,5.92-1.84,1.84-4.94-.04-4.26-2.78ZM43.94,28.95c.22-1.08,1.21-1.93,2.29-2.02,1.17-.09,2.2.54,2.65,1.62.36.94.36,5.7.09,6.73-.72,2.78-4.85,2.6-5.12-.76-.09-1.17-.13-4.53.09-5.57ZM46.05,42.33c12.39-.31,19.75,12.66,18.22,23.79-1.84,13.33-15.84,22.8-27.69,13.87-14-10.46-8.71-37.21,9.47-37.66ZM29.4,31.42c.9-.13,1.75.22,2.38.9.36.4,2.92,4.8,3.05,5.21.67,2.74-2.42,4.62-4.26,2.78-.54-.54-2.92-4.71-3.14-5.48-.54-1.53.31-3.14,1.97-3.41ZM27.2,91.52c.09-.72,2.96-5.79,3.55-6.24.18-.18.63-.4.85-.45,2.11-.4,3.64,1.17,3.23,3.23-.04.31-2.65,4.89-2.96,5.25-1.75,2.06-4.94.67-4.67-1.8ZM17.37,43.63c.36-.04.49,0,.76.09.72.13,5.39,2.83,5.88,3.32,1.71,1.88-.22,4.85-2.87,4.17-.4-.09-4.4-2.42-4.89-2.78-2.11-1.57-1.35-4.62,1.12-4.8ZM12.7,60.28c1.08-.18,4.22-.13,5.39-.04,3.55.31,3.5,4.71.49,5.21-.99.18-5.43.18-6.33-.13-2.47-.85-2.15-4.53.45-5.03Z"/>
        <path class="cls-1" d="M35.37,70.69c5.34,10.86,18.63,9.65,22.8-1.44,3.46-9.2-1.8-22.98-13.06-21.68-10.23,1.17-13.78,14.86-9.74,23.11Z"/>
      </g>
    </g>
  </g>
</svg>
